<svg width="16" height="16" viewBox="0 0 16 16" fill="none" xmlns="http://www.w3.org/2000/svg">
<path d="M1.53373 1.99998C2.38815 1.19459 3.51915 0.747948 4.69332 0.752228C5.86749 0.756508 6.9952 1.21139 7.84373 2.02298C8.35421 1.5372 8.96985 1.17567 9.64278 0.966509C10.3157 0.757345 11.0278 0.706178 11.7237 0.816984H11.7257C12.6525 0.968682 13.5109 1.39931 14.1867 2.05144C14.8624 2.70357 15.3232 3.54621 15.5077 4.46698V4.46998C15.6409 5.14483 15.6191 5.8411 15.444 6.50629C15.2689 7.17148 14.945 7.78822 14.4967 8.30999L9.19373 14.629C8.94415 14.9253 8.604 15.1313 8.22575 15.2152C7.84749 15.299 7.45216 15.2561 7.10073 15.093C6.86771 14.9846 6.66122 14.8266 6.49573 14.63L1.19173 8.30898C0.427999 7.41457 0.0374455 6.26072 0.100922 5.08631C0.164399 3.9119 0.677043 2.80687 1.53273 1.99998H1.53373ZM4.69173 2.25198C4.10128 2.24898 3.5224 2.41566 3.02395 2.73217C2.5255 3.04869 2.12846 3.50172 1.88006 4.03739C1.63166 4.57305 1.54237 5.1688 1.62279 5.75375C1.70322 6.3387 1.94998 6.88824 2.33373 7.33698L2.33873 7.34198L7.64373 13.664C7.68098 13.7078 7.73151 13.7382 7.78765 13.7507C7.84378 13.7631 7.90245 13.7569 7.95473 13.733C7.98941 13.7168 8.02013 13.6933 8.04473 13.664L13.3567 7.33398C13.6576 6.98464 13.8751 6.5715 13.9929 6.12576C14.1107 5.68003 14.1257 5.21336 14.0367 4.76098C13.9121 4.13991 13.6012 3.57154 13.1454 3.13154C12.6897 2.69154 12.1108 2.40079 11.4857 2.29798C11.0169 2.22344 10.5372 2.25831 10.0841 2.39986C9.63098 2.54141 9.21674 2.78582 8.87373 3.11398L8.86673 3.12098C8.58897 3.37944 8.22364 3.52312 7.84423 3.52312C7.46482 3.52312 7.09949 3.37944 6.82173 3.12098L6.81273 3.11298C6.24248 2.56434 5.48305 2.25605 4.69173 2.25198Z" fill="white" fill-opacity="0.698"/>
</svg>
