<svg width="16" height="15" viewBox="0 0 16 15" fill="none" xmlns="http://www.w3.org/2000/svg">
<path d="M15.9183 3.59514C15.7412 2.70664 15.3 1.89368 14.6534 1.26458C14.0069 0.635478 13.1858 0.220096 12.2994 0.0737767C11.6334 -0.0333441 10.9519 0.0163697 10.3081 0.219034C9.66435 0.421698 9.07573 0.771823 8.58826 1.24205C8.42959 1.39095 8.22093 1.47372 8.00424 1.47372C7.78755 1.47372 7.57889 1.39095 7.42022 1.24205C6.61088 0.452147 5.531 0.00734078 4.40504 9.005e-05C3.27908 -0.00716068 2.19366 0.423702 1.3744 1.20312C0.555135 1.98253 0.0650539 3.05054 0.00602418 4.18515C-0.0530055 5.31976 0.323557 6.43367 1.05744 7.29536L7.11898 14.5842C7.22747 14.7144 7.36288 14.8191 7.51572 14.8909C7.66856 14.9628 7.83512 15 8.00373 15C8.17233 15 8.3389 14.9628 8.49174 14.8909C8.64458 14.8191 8.77999 14.7144 8.88847 14.5842L14.95 7.29536C15.3787 6.79332 15.6886 6.1995 15.8563 5.55882C16.024 4.91814 16.0452 4.24737 15.9183 3.59721V3.59514Z" fill="#1ED760"/>
</svg>
