<svg width="16" height="16" viewBox="0 0 16 16" fill="none" xmlns="http://www.w3.org/2000/svg">
<path d="M1.68998 2.20335C2.5444 1.39796 3.6754 0.951317 4.84957 0.955597C6.02374 0.959877 7.15145 1.41476 7.99998 2.22635C8.51046 1.74057 9.1261 1.37904 9.79903 1.16988C10.472 0.960715 11.1841 0.909547 11.88 1.02035H11.882C12.8087 1.17205 13.6672 1.60268 14.3429 2.25481C15.0186 2.90694 15.4795 3.74958 15.664 4.67035V4.67335C15.7972 5.34819 15.7754 6.04447 15.6002 6.70966C15.4251 7.37485 15.1012 7.99159 14.653 8.51335L9.34998 14.8324C9.1004 15.1287 8.76025 15.3347 8.382 15.4185C8.00374 15.5024 7.60841 15.4595 7.25698 15.2964C7.02396 15.188 6.81747 15.03 6.65198 14.8334L1.34798 8.51235C0.584249 7.61794 0.193696 6.46409 0.257172 5.28968C0.320649 4.11527 0.833293 3.01024 1.68898 2.20335H1.68998ZM4.84798 2.45535C4.25753 2.45235 3.67865 2.61903 3.1802 2.93554C2.68175 3.25206 2.28471 3.70509 2.03631 4.24076C1.78791 4.77642 1.69862 5.37216 1.77904 5.95712C1.85947 6.54207 2.10623 7.0916 2.48998 7.54035L2.49498 7.54535L7.79998 13.8674C7.83723 13.9112 7.88776 13.9416 7.9439 13.954C8.00003 13.9665 8.0587 13.9603 8.11098 13.9364C8.14566 13.9202 8.17638 13.8966 8.20098 13.8674L13.513 7.53735C13.8138 7.18801 14.0314 6.77487 14.1492 6.32913C14.267 5.8834 14.282 5.41672 14.193 4.96435C14.0683 4.34328 13.7574 3.77491 13.3017 3.33491C12.846 2.89491 12.267 2.60416 11.642 2.50135C11.1732 2.42681 10.6935 2.46168 10.2403 2.60323C9.78723 2.74478 9.37299 2.98919 9.02998 3.31735L9.02298 3.32435C8.74522 3.58281 8.37989 3.72649 8.00048 3.72649C7.62107 3.72649 7.25574 3.58281 6.97798 3.32435L6.96898 3.31635C6.39873 2.7677 5.63929 2.45942 4.84798 2.45535Z" fill="white"/>
</svg>
