<svg width="22" height="23" viewBox="0 0 22 23" fill="none" xmlns="http://www.w3.org/2000/svg">
<path d="M11.2 2.31575C11.0378 2.22051 10.8539 2.17036 10.6667 2.17036C10.4794 2.17036 10.2955 2.22051 10.1333 2.31575L2.13333 7.0147V20.4962H6.93333V13.985C6.93333 13.6972 7.04571 13.4212 7.24575 13.2176C7.44579 13.0141 7.7171 12.8998 8 12.8998H13.3333C13.6162 12.8998 13.8875 13.0141 14.0876 13.2176C14.2876 13.4212 14.4 13.6972 14.4 13.985V20.4962H19.2V7.0147L11.2 2.31575ZM9.06667 0.436171C9.55313 0.15043 10.1049 0 10.6667 0C11.2284 0 11.7802 0.15043 12.2667 0.436171L20.2667 5.13512C20.591 5.32561 20.8603 5.59959 21.0475 5.92953C21.2347 6.25946 21.3333 6.63373 21.3333 7.0147V21.5815C21.3333 21.8693 21.221 22.1453 21.0209 22.3488C20.8209 22.5523 20.5496 22.6667 20.2667 22.6667H13.3333C13.0504 22.6667 12.7791 22.5523 12.5791 22.3488C12.379 22.1453 12.2667 21.8693 12.2667 21.5815V15.0702H9.06667V21.5815C9.06667 21.8693 8.95429 22.1453 8.75425 22.3488C8.55421 22.5523 8.2829 22.6667 8 22.6667H1.06667C0.783769 22.6667 0.512458 22.5523 0.312419 22.3488C0.112381 22.1453 0 21.8693 0 21.5815V7.0147C9.513e-06 6.63373 0.0985875 6.25946 0.285826 5.92953C0.473065 5.59959 0.742367 5.32561 1.06667 5.13512L9.06667 0.436171V0.436171Z" fill="#B3B3B3"/>
</svg>
