<svg width="22" height="22" viewBox="0 0 22 22" fill="none" xmlns="http://www.w3.org/2000/svg">
<path d="M1.06667 21.3333C0.783769 21.3333 0.512458 21.221 0.312419 21.0209C0.112381 20.8209 0 20.5496 0 20.2667V1.06667C0 0.783769 0.112381 0.512458 0.312419 0.312419C0.512458 0.112381 0.783769 0 1.06667 0C1.34956 0 1.62088 0.112381 1.82091 0.312419C2.02095 0.512458 2.13333 0.783769 2.13333 1.06667V20.2667C2.13333 20.5496 2.02095 20.8209 1.82091 21.0209C1.62088 21.221 1.34956 21.3333 1.06667 21.3333ZM14.4 0.142933C14.2378 0.049315 14.0539 2.84007e-05 13.8667 2.72115e-05C13.6794 2.60223e-05 13.4955 0.0493102 13.3333 0.142927C13.1712 0.236543 13.0365 0.371193 12.9429 0.533343C12.8493 0.695493 12.8 0.87943 12.8 1.06667V20.2667C12.8 20.5496 12.9124 20.8209 13.1124 21.0209C13.3125 21.221 13.5838 21.3333 13.8667 21.3333H20.2667C20.5496 21.3333 20.8209 21.221 21.0209 21.0209C21.221 20.8209 21.3333 20.5496 21.3333 20.2667V4.7616C21.3333 4.57437 21.284 4.39043 21.1904 4.22828C21.0968 4.06613 20.9621 3.93148 20.8 3.83787L14.4 0.142933V0.142933ZM7.46667 0C7.18377 0 6.91246 0.112381 6.71242 0.312419C6.51238 0.512458 6.4 0.783769 6.4 1.06667V20.2667C6.4 20.5496 6.51238 20.8209 6.71242 21.0209C6.91246 21.221 7.18377 21.3333 7.46667 21.3333C7.74956 21.3333 8.02087 21.221 8.22091 21.0209C8.42095 20.8209 8.53333 20.5496 8.53333 20.2667V1.06667C8.53333 0.783769 8.42095 0.512458 8.22091 0.312419C8.02087 0.112381 7.74956 0 7.46667 0V0Z" fill="#B3B3B3"/>
</svg>
