<svg width="15" height="14" viewBox="0 0 15 14" fill="none" xmlns="http://www.w3.org/2000/svg">
<path d="M14.5 7C14.5 7.19205 14.4237 7.37624 14.2879 7.51204C14.1521 7.64784 13.9679 7.72414 13.7759 7.72414H8.22414V13.2759C8.22414 13.4679 8.14784 13.6521 8.01204 13.7879C7.87624 13.9237 7.69205 14 7.5 14C7.30795 14 7.12376 13.9237 6.98796 13.7879C6.85215 13.6521 6.77586 13.4679 6.77586 13.2759V7.72414H1.22414C1.03208 7.72414 0.847897 7.64784 0.712095 7.51204C0.576293 7.37624 0.5 7.19205 0.5 7C0.5 6.80795 0.576293 6.62376 0.712095 6.48796C0.847897 6.35215 1.03208 6.27586 1.22414 6.27586H6.77586V0.724138C6.77586 0.532085 6.85215 0.347897 6.98796 0.212095C7.12376 0.0762929 7.30795 0 7.5 0C7.69205 0 7.87624 0.0762929 8.01204 0.212095C8.14784 0.347897 8.22414 0.532085 8.22414 0.724138V6.27586H13.7759C13.9679 6.27586 14.1521 6.35215 14.2879 6.48796C14.4237 6.62376 14.5 6.80795 14.5 7Z" fill="#B3B3B3"/>
</svg>
