<svg width="22" height="22" viewBox="0 0 22 22" fill="none" xmlns="http://www.w3.org/2000/svg">
<path d="M9.38371 0.00100827C4.21653 0.00100827 0 4.17506 0 9.35633C0 14.5376 4.21554 18.7117 9.38371 18.7117C11.6122 18.7117 13.6631 17.9353 15.2761 16.6367L19.6183 21.0255C19.7103 21.1218 19.8204 21.1986 19.9421 21.2515C20.0638 21.3043 20.1947 21.3321 20.3271 21.3333C20.4596 21.3345 20.5909 21.3089 20.7135 21.2583C20.8361 21.2076 20.9475 21.1327 21.0412 21.038C21.1348 20.9434 21.2089 20.8308 21.2591 20.7069C21.3092 20.583 21.3344 20.4502 21.3333 20.3163C21.3321 20.1825 21.3046 20.0502 21.2523 19.9272C21.2001 19.8042 21.1241 19.6929 21.0288 19.5999L16.6956 15.2202C18.0371 13.567 18.7694 11.4945 18.7674 9.35633C18.7674 4.17405 14.5519 0 9.38371 0V0.00100827ZM1.99505 9.35633C1.99505 5.31738 5.28887 2.01645 9.38371 2.01645C13.4785 2.01645 16.7724 5.31738 16.7724 9.35633C16.7724 13.3953 13.4785 16.6952 9.38371 16.6952C5.28887 16.6952 1.99505 13.3953 1.99505 9.35532V9.35633Z" fill="#B3B3B3"/>
</svg>
