<svg width="14" height="14" viewBox="0 0 14 14" fill="none" xmlns="http://www.w3.org/2000/svg">
<path d="M5.53 8.67313C5.67045 8.81375 5.74934 9.00437 5.74934 9.20312C5.74934 9.40188 5.67045 9.5925 5.53 9.73312L2.81 12.4531H3.828C4.02691 12.4531 4.21768 12.5321 4.35833 12.6728C4.49898 12.8134 4.578 13.0042 4.578 13.2031C4.578 13.402 4.49898 13.5928 4.35833 13.7335C4.21768 13.8741 4.02691 13.9531 3.828 13.9531H0.25V10.3741C0.25 10.1752 0.329018 9.98445 0.46967 9.84379C0.610322 9.70314 0.801088 9.62412 1 9.62412C1.19891 9.62412 1.38968 9.70314 1.53033 9.84379C1.67098 9.98445 1.75 10.1752 1.75 10.3741V11.3921L4.47 8.67212C4.61063 8.53167 4.80125 8.45278 5 8.45278C5.19875 8.45278 5.38937 8.53167 5.53 8.67212V8.67313ZM8.47 5.73313C8.32955 5.5925 8.25066 5.40188 8.25066 5.20312C8.25066 5.00437 8.32955 4.81375 8.47 4.67312L11.19 1.95312H10.172C10.0735 1.95313 9.97598 1.93373 9.88499 1.89603C9.79399 1.85834 9.71131 1.8031 9.64167 1.73346C9.57203 1.66381 9.51678 1.58113 9.47909 1.49014C9.4414 1.39914 9.422 1.30162 9.422 1.20312C9.422 1.10463 9.4414 1.00711 9.47909 0.916112C9.51678 0.825118 9.57203 0.742439 9.64167 0.672795C9.71131 0.603151 9.79399 0.547906 9.88499 0.510215C9.97598 0.472524 10.0735 0.453125 10.172 0.453125H13.75V4.03212C13.75 4.23104 13.671 4.4218 13.5303 4.56246C13.3897 4.70311 13.1989 4.78212 13 4.78212C12.8011 4.78212 12.6103 4.70311 12.4697 4.56246C12.329 4.4218 12.25 4.23104 12.25 4.03212V3.01312L9.53 5.73313C9.38937 5.87358 9.19875 5.95247 9 5.95247C8.80125 5.95247 8.61063 5.87358 8.47 5.73313Z" fill="#B9B9B9"/>
</svg>
