<svg width="18" height="18" viewBox="0 0 18 18" fill="none" xmlns="http://www.w3.org/2000/svg">
<path d="M5 10.1061H1C1 8.09614 3.11886 6.40358 4.04586 6.00688C4.04586 5.08126 2.72157 4.15564 3.11886 2.43663C3.25203 1.86042 4.04586 0.98209 5.37015 0.982086C5.72329 1.02616 6.8586 1.04437 7.35658 2.43663C7.68923 3.36668 7.27214 5.74242 5.89986 5.74242M13.1834 10.1061H17C17 8.09614 14.8811 6.40358 13.9541 6.00688C13.9541 5.08126 15.2784 4.15564 14.8811 2.43663C14.748 1.86042 13.9541 0.98209 12.6299 0.982086C12.2767 1.02616 11.1414 1.04437 10.6434 2.43663C10.3108 3.36668 10.7279 5.74242 12.1001 5.74242M4.70801 16.9821H13.1834C13.1834 16.2328 12.5743 14.0466 10.1376 12.8829C10.0052 11.9573 11.7267 11.1639 11.0646 9.31266C10.5666 7.9204 9.4313 7.9022 9.07815 7.85812C7.75387 7.85812 6.96004 8.73645 6.82687 9.31266C6.42958 11.0317 7.75387 11.9573 7.75387 12.8829C6.82687 13.2796 4.70801 14.9722 4.70801 16.9821Z" stroke="white"/>
</svg>
