<svg width="10" height="16" viewBox="0 0 10 16" fill="none" xmlns="http://www.w3.org/2000/svg">
<path d="M9.24853 0.2464C9.40295 0.404218 9.4897 0.618236 9.4897 0.841391C9.4897 1.06454 9.40295 1.27856 9.24853 1.43638L2.82943 7.99474L9.24853 14.5531C9.32721 14.6307 9.38996 14.7236 9.43313 14.8263C9.47629 14.9289 9.49902 15.0394 9.49997 15.1511C9.50092 15.2629 9.48008 15.3737 9.43866 15.4771C9.39725 15.5805 9.33608 15.6745 9.25874 15.7535C9.1814 15.8325 9.08944 15.895 8.98821 15.9373C8.88698 15.9796 8.77851 16.0009 8.66914 16C8.55977 15.999 8.45168 15.9758 8.35119 15.9317C8.25069 15.8876 8.1598 15.8235 8.08382 15.7431L0.5 7.99474L8.08382 0.2464C8.23829 0.0886302 8.44776 0 8.66618 0C8.88459 0 9.09407 0.0886302 9.24853 0.2464V0.2464Z" fill="white"/>
</svg>
