<svg width="14" height="13" viewBox="0 0 14 13" fill="none" xmlns="http://www.w3.org/2000/svg">
<path d="M0 3.2902C0 2.41759 0.345702 1.58071 0.961056 0.963679C1.57641 0.346646 2.41101 0 3.28125 0H10.7188C11.589 0 12.4236 0.346646 13.0389 0.963679C13.6543 1.58071 14 2.41759 14 3.2902V7.67714C14 8.54976 13.6543 9.38664 13.0389 10.0037C12.4236 10.6207 11.589 10.9673 10.7188 10.9673H8.58375L9.4745 11.8605C9.53898 11.9208 9.59069 11.9934 9.62656 12.0741C9.66243 12.1549 9.68171 12.242 9.68327 12.3304C9.68482 12.4187 9.66861 12.5065 9.63561 12.5884C9.6026 12.6703 9.55347 12.7448 9.49116 12.8073C9.42884 12.8698 9.35461 12.919 9.2729 12.9521C9.19118 12.9852 9.10366 13.0015 9.01554 12.9999C8.92743 12.9983 8.84053 12.979 8.76003 12.943C8.67953 12.9071 8.60708 12.8552 8.547 12.7906L6.07163 10.3093L8.547 7.82805C8.60708 7.7634 8.67953 7.71155 8.76003 7.67558C8.84053 7.63962 8.92743 7.62028 9.01554 7.61872C9.10366 7.61716 9.19118 7.63341 9.2729 7.66651C9.35461 7.6996 9.42884 7.74886 9.49116 7.81135C9.55347 7.87384 9.6026 7.94827 9.63561 8.03021C9.66861 8.11214 9.68482 8.19991 9.68327 8.28826C9.68171 8.37662 9.66243 8.46376 9.62656 8.54448C9.59069 8.62519 9.53898 8.69784 9.4745 8.75809L8.58462 9.65127H10.7188C11.2409 9.65127 11.7417 9.44328 12.1109 9.07306C12.4801 8.70284 12.6875 8.20071 12.6875 7.67714V3.2902C12.6875 2.76663 12.4801 2.26451 12.1109 1.89429C11.7417 1.52407 11.2409 1.31608 10.7188 1.31608H3.28125C2.75911 1.31608 2.25835 1.52407 1.88913 1.89429C1.51992 2.26451 1.3125 2.76663 1.3125 3.2902V7.67714C1.3125 8.20071 1.51992 8.70284 1.88913 9.07306C2.25835 9.44328 2.75911 9.65127 3.28125 9.65127H4.375V10.9673H3.28125C2.41101 10.9673 1.57641 10.6207 0.961056 10.0037C0.345702 9.38664 0 8.54976 0 7.67714L0 3.2902Z" fill="#1ED760"/>
</svg>
