<svg width="40" height="40" viewBox="0 0 40 40" fill="none" xmlns="http://www.w3.org/2000/svg">
<rect width="40" height="40" rx="20" fill="white"/>
<path d="M16.2134 12.995L27.2148 19.4944C27.3015 19.5457 27.3735 19.6194 27.4236 19.7082C27.4736 19.7969 27.5 19.8976 27.5 20.0001C27.5 20.1026 27.4736 20.2032 27.4236 20.292C27.3735 20.3808 27.3015 20.4545 27.2148 20.5058L16.2134 27.0051C16.1266 27.0564 16.0282 27.0834 15.928 27.0834C15.8278 27.0834 15.7294 27.0564 15.6426 27.0052C15.5558 26.9539 15.4838 26.8802 15.4337 26.7914C15.3835 26.7027 15.3571 26.602 15.3571 26.4994V13.5007C15.3571 13.3982 15.3835 13.2975 15.4337 13.2087C15.4838 13.1199 15.5558 13.0462 15.6426 12.995C15.7294 12.9437 15.8278 12.9167 15.928 12.9167C16.0282 12.9168 16.1266 12.9437 16.2134 12.995Z" fill="black"/>
</svg>
