<svg width="32" height="32" viewBox="0 0 32 32" fill="none" xmlns="http://www.w3.org/2000/svg">
<rect width="32" height="32" rx="16" fill="white"/>
<g clip-path="url(#clip0_2_7105)">
<path d="M10.7 9C10.5143 9 10.3363 9.07375 10.205 9.20503C10.0737 9.3363 10 9.51435 10 9.7V22.3C10 22.4857 10.0737 22.6637 10.205 22.795C10.3363 22.9262 10.5143 23 10.7 23H13.3C13.4857 23 13.6637 22.9262 13.795 22.795C13.9263 22.6637 14 22.4857 14 22.3V9.7C14 9.51435 13.9263 9.3363 13.795 9.20503C13.6637 9.07375 13.4857 9 13.3 9H10.7ZM18.7 9C18.5143 9 18.3363 9.07375 18.205 9.20503C18.0738 9.3363 18 9.51435 18 9.7V22.3C18 22.4857 18.0738 22.6637 18.205 22.795C18.3363 22.9262 18.5143 23 18.7 23H21.3C21.4857 23 21.6637 22.9262 21.795 22.795C21.9262 22.6637 22 22.4857 22 22.3V9.7C22 9.51435 21.9262 9.3363 21.795 9.20503C21.6637 9.07375 21.4857 9 21.3 9H18.7Z" fill="black"/>
</g>
<defs>
<clipPath id="clip0_2_7105">
<rect width="16" height="16" fill="white" transform="translate(8 8)"/>
</clipPath>
</defs>
</svg>
