<svg width="16" height="16" viewBox="0 0 16 16" fill="none" xmlns="http://www.w3.org/2000/svg">
<path d="M7.03778 0.000756204C3.1624 0.000756204 0 3.1313 0 7.01725C0 10.9032 3.16165 14.0337 7.03778 14.0337C8.70913 14.0337 10.2473 13.4515 11.4571 12.4775L14.7137 15.7692C14.7827 15.8414 14.8653 15.899 14.9566 15.9386C15.0478 15.9782 15.146 15.9991 15.2454 16C15.3447 16.0008 15.4432 15.9817 15.5352 15.9437C15.6271 15.9057 15.7106 15.8495 15.7809 15.7785C15.8511 15.7075 15.9067 15.6231 15.9443 15.5302C15.9819 15.4372 16.0008 15.3377 16 15.2373C15.9991 15.1369 15.9785 15.0376 15.9393 14.9454C15.9001 14.8531 15.8431 14.7697 15.7716 14.6999L12.5217 11.4151C13.5279 10.1753 14.0771 8.62085 14.0756 7.01725C14.0756 3.13054 10.9139 0 7.03778 0V0.000756204ZM1.49629 7.01725C1.49629 3.98804 3.96665 1.51234 7.03778 1.51234C10.1089 1.51234 12.5793 3.98804 12.5793 7.01725C12.5793 10.0465 10.1089 12.5214 7.03778 12.5214C3.96665 12.5214 1.49629 10.0465 1.49629 7.01649V7.01725Z" fill="white"/>
</svg>
