<svg width="38" height="38" viewBox="0 0 38 38" fill="none" xmlns="http://www.w3.org/2000/svg">
<circle cx="19" cy="19" r="17.75" stroke="#B3B3B3" stroke-width="2.5"/>
<path fill-rule="evenodd" clip-rule="evenodd" d="M27.839 21.9289L19.884 29.8839C19.3959 30.372 18.6044 30.372 18.1162 29.8839L10.1613 21.9289C9.67314 21.4408 9.67314 20.6493 10.1613 20.1612C10.6494 19.673 11.4409 19.673 11.9291 20.1612L17.7501 25.9822L17.7501 10C17.7501 9.30964 18.3098 8.75 19.0001 8.75C19.6905 8.75 20.2501 9.30964 20.2501 10L20.2501 25.9822L26.0712 20.1612C26.5594 19.673 27.3508 19.673 27.839 20.1612C28.3271 20.6493 28.3271 21.4408 27.839 21.9289Z" fill="#B3B3B3"/>
</svg>
