<svg width="56" height="56" viewBox="0 0 56 56" fill="none" xmlns="http://www.w3.org/2000/svg">
<rect width="56" height="56" rx="28" fill="#1ED760"/>
<path d="M20.4917 17.6667C20.2287 17.6667 19.9764 17.7787 19.7905 17.9779C19.6045 18.1772 19.5 18.4475 19.5 18.7292V37.8542C19.5 38.136 19.6045 38.4063 19.7905 38.6055C19.9764 38.8048 20.2287 38.9167 20.4917 38.9167H24.175C24.438 38.9167 24.6902 38.8048 24.8762 38.6055C25.0622 38.4063 25.1667 38.136 25.1667 37.8542V18.7292C25.1667 18.4475 25.0622 18.1772 24.8762 17.9779C24.6902 17.7787 24.438 17.6667 24.175 17.6667H20.4917ZM31.825 17.6667C31.562 17.6667 31.3098 17.7787 31.1238 17.9779C30.9378 18.1772 30.8333 18.4475 30.8333 18.7292V37.8542C30.8333 38.136 30.9378 38.4063 31.1238 38.6055C31.3098 38.8048 31.562 38.9167 31.825 38.9167H35.5083C35.7713 38.9167 36.0236 38.8048 36.2095 38.6055C36.3955 38.4063 36.5 38.136 36.5 37.8542V18.7292C36.5 18.4475 36.3955 18.1772 36.2095 17.9779C36.0236 17.7787 35.7713 17.6667 35.5083 17.6667H31.825Z" fill="black"/>
</svg>
