<svg width="16" height="16" viewBox="0 0 16 16" fill="none" xmlns="http://www.w3.org/2000/svg">
<path d="M8.00011 1.50002C6.27618 1.50002 4.62286 2.18485 3.40385 3.40385C2.18485 4.62286 1.50002 6.27618 1.50002 8.00011C1.50002 9.72404 2.18485 11.3774 3.40385 12.5964C4.62286 13.8154 6.27618 14.5002 8.00011 14.5002C9.72404 14.5002 11.3774 13.8154 12.5964 12.5964C13.8154 11.3774 14.5002 9.72404 14.5002 8.00011C14.5002 6.27618 13.8154 4.62286 12.5964 3.40385C11.3774 2.18485 9.72404 1.50002 8.00011 1.50002ZM0 8.00011C0 5.87835 0.842867 3.84349 2.34318 2.34318C3.84349 0.842867 5.87835 0 8.00011 0C10.1219 0 12.1567 0.842867 13.657 2.34318C15.1574 3.84349 16.0002 5.87835 16.0002 8.00011C16.0002 10.1219 15.1574 12.1567 13.657 13.657C12.1567 15.1574 10.1219 16.0002 8.00011 16.0002C5.87835 16.0002 3.84349 15.1574 2.34318 13.657C0.842867 12.1567 0 10.1219 0 8.00011Z" fill="#B3B3B3"/>
<path d="M7.99977 3.24988C8.19868 3.24988 8.38945 3.3289 8.5301 3.46955C8.67076 3.61021 8.74978 3.80097 8.74978 3.99989V7.24993H10.9998C11.1987 7.24993 11.3895 7.32895 11.5301 7.46961C11.6708 7.61026 11.7498 7.80103 11.7498 7.99994C11.7498 8.19886 11.6708 8.38963 11.5301 8.53028C11.3895 8.67093 11.1987 8.74995 10.9998 8.74995H7.24976V3.99989C7.24976 3.80097 7.32877 3.61021 7.46943 3.46955C7.61008 3.3289 7.80085 3.24988 7.99977 3.24988Z" fill="#B3B3B3"/>
</svg>
