<svg width="88" height="32" viewBox="0 0 88 32" fill="none" xmlns="http://www.w3.org/2000/svg">
<path d="M15.466 11.004H22.942V12.852H17.664V14.994H22.508V16.702H17.664V19.152H23.054V21H15.466V11.004ZM24.3341 13.762H26.2241V14.77H26.2661C26.5181 14.35 26.8448 14.0467 27.2461 13.86C27.6475 13.664 28.0581 13.566 28.4781 13.566C29.0101 13.566 29.4441 13.6407 29.7801 13.79C30.1255 13.93 30.3961 14.1307 30.5921 14.392C30.7881 14.644 30.9235 14.9567 30.9981 15.33C31.0821 15.694 31.1241 16.1 31.1241 16.548V21H29.1361V16.912C29.1361 16.3147 29.0428 15.8713 28.8561 15.582C28.6695 15.2833 28.3381 15.134 27.8621 15.134C27.3208 15.134 26.9288 15.2973 26.6861 15.624C26.4435 15.9413 26.3221 16.4687 26.3221 17.206V21H24.3341V13.762ZM32.633 11.004H34.621V14.77H34.663C34.915 14.35 35.237 14.0467 35.629 13.86C36.021 13.664 36.4036 13.566 36.777 13.566C37.309 13.566 37.743 13.6407 38.079 13.79C38.4243 13.93 38.695 14.1307 38.891 14.392C39.087 14.644 39.2223 14.9567 39.297 15.33C39.381 15.694 39.423 16.1 39.423 16.548V21H37.435V16.912C37.435 16.3147 37.3416 15.8713 37.155 15.582C36.9683 15.2833 36.637 15.134 36.161 15.134C35.6196 15.134 35.2276 15.2973 34.985 15.624C34.7423 15.9413 34.621 16.4687 34.621 17.206V21H32.633V11.004ZM40.8478 15.988C40.8758 15.5213 40.9924 15.134 41.1978 14.826C41.4031 14.518 41.6644 14.2707 41.9818 14.084C42.2991 13.8973 42.6538 13.7667 43.0458 13.692C43.4471 13.608 43.8484 13.566 44.2498 13.566C44.6138 13.566 44.9824 13.594 45.3558 13.65C45.7291 13.6967 46.0698 13.7947 46.3778 13.944C46.6858 14.0933 46.9378 14.3033 47.1338 14.574C47.3298 14.8353 47.4278 15.1853 47.4278 15.624V19.39C47.4278 19.7167 47.4464 20.0293 47.4838 20.328C47.5211 20.6267 47.5864 20.8507 47.6798 21H45.6638C45.6264 20.888 45.5938 20.776 45.5658 20.664C45.5471 20.5427 45.5331 20.4213 45.5238 20.3C45.2064 20.6267 44.8331 20.8553 44.4038 20.986C43.9744 21.1167 43.5358 21.182 43.0878 21.182C42.7424 21.182 42.4204 21.14 42.1218 21.056C41.8231 20.972 41.5618 20.8413 41.3378 20.664C41.1138 20.4867 40.9364 20.2627 40.8058 19.992C40.6844 19.7213 40.6238 19.3993 40.6238 19.026C40.6238 18.6153 40.6938 18.2793 40.8338 18.018C40.9831 17.7473 41.1698 17.5327 41.3938 17.374C41.6271 17.2153 41.8884 17.0987 42.1778 17.024C42.4764 16.94 42.7751 16.8747 43.0738 16.828C43.3724 16.7813 43.6664 16.744 43.9558 16.716C44.2451 16.688 44.5018 16.646 44.7258 16.59C44.9498 16.534 45.1271 16.4547 45.2578 16.352C45.3884 16.24 45.4491 16.0813 45.4398 15.876C45.4398 15.6613 45.4024 15.4933 45.3278 15.372C45.2624 15.2413 45.1691 15.1433 45.0478 15.078C44.9358 15.0033 44.8004 14.9567 44.6418 14.938C44.4924 14.91 44.3291 14.896 44.1518 14.896C43.7598 14.896 43.4518 14.98 43.2278 15.148C43.0038 15.316 42.8731 15.596 42.8358 15.988H40.8478ZM45.4398 17.458C45.3558 17.5327 45.2484 17.5933 45.1178 17.64C44.9964 17.6773 44.8611 17.71 44.7118 17.738C44.5718 17.766 44.4224 17.7893 44.2638 17.808C44.1051 17.8267 43.9464 17.85 43.7878 17.878C43.6384 17.906 43.4891 17.9433 43.3398 17.99C43.1998 18.0367 43.0738 18.102 42.9618 18.186C42.8591 18.2607 42.7751 18.3587 42.7098 18.48C42.6444 18.6013 42.6118 18.7553 42.6118 18.942C42.6118 19.1193 42.6444 19.2687 42.7098 19.39C42.7751 19.5113 42.8638 19.6093 42.9758 19.684C43.0878 19.7493 43.2184 19.796 43.3678 19.824C43.5171 19.852 43.6711 19.866 43.8298 19.866C44.2218 19.866 44.5251 19.8007 44.7398 19.67C44.9544 19.5393 45.1131 19.3853 45.2158 19.208C45.3184 19.0213 45.3791 18.8347 45.3978 18.648C45.4258 18.4613 45.4398 18.312 45.4398 18.2V17.458ZM48.9708 13.762H50.8608V14.77H50.9028C51.1548 14.35 51.4815 14.0467 51.8828 13.86C52.2842 13.664 52.6948 13.566 53.1148 13.566C53.6468 13.566 54.0808 13.6407 54.4168 13.79C54.7622 13.93 55.0328 14.1307 55.2288 14.392C55.4248 14.644 55.5602 14.9567 55.6348 15.33C55.7188 15.694 55.7608 16.1 55.7608 16.548V21H53.7728V16.912C53.7728 16.3147 53.6795 15.8713 53.4928 15.582C53.3062 15.2833 52.9748 15.134 52.4988 15.134C51.9575 15.134 51.5655 15.2973 51.3228 15.624C51.0802 15.9413 50.9588 16.4687 50.9588 17.206V21H48.9708V13.762ZM62.1977 16.31C62.067 15.4793 61.577 15.064 60.7277 15.064C60.4103 15.064 60.1443 15.1387 59.9297 15.288C59.715 15.428 59.5377 15.6147 59.3977 15.848C59.267 16.072 59.1737 16.324 59.1177 16.604C59.0617 16.8747 59.0337 17.1453 59.0337 17.416C59.0337 17.6773 59.0617 17.9433 59.1177 18.214C59.1737 18.4847 59.2623 18.732 59.3837 18.956C59.5143 19.1707 59.687 19.348 59.9017 19.488C60.1163 19.628 60.3777 19.698 60.6857 19.698C61.1617 19.698 61.5257 19.5673 61.7777 19.306C62.039 19.0353 62.2023 18.676 62.2677 18.228H64.1857C64.055 19.1893 63.6817 19.922 63.0657 20.426C62.4497 20.93 61.661 21.182 60.6997 21.182C60.1583 21.182 59.659 21.0933 59.2017 20.916C58.7537 20.7293 58.371 20.4727 58.0537 20.146C57.7363 19.8193 57.489 19.432 57.3117 18.984C57.1343 18.5267 57.0457 18.0273 57.0457 17.486C57.0457 16.926 57.125 16.408 57.2837 15.932C57.4517 15.4467 57.6943 15.0313 58.0117 14.686C58.329 14.3313 58.7163 14.056 59.1737 13.86C59.631 13.664 60.1537 13.566 60.7417 13.566C61.171 13.566 61.5817 13.622 61.9737 13.734C62.375 13.846 62.7297 14.0187 63.0377 14.252C63.355 14.476 63.6117 14.7607 63.8077 15.106C64.0037 15.442 64.1157 15.8433 64.1437 16.31H62.1977ZM70.1807 16.604C70.0874 16.1 69.9194 15.7173 69.6767 15.456C69.4434 15.1947 69.0841 15.064 68.5987 15.064C68.2814 15.064 68.0154 15.12 67.8007 15.232C67.5954 15.3347 67.4274 15.4653 67.2967 15.624C67.1754 15.7827 67.0867 15.9507 67.0307 16.128C66.9841 16.3053 66.9561 16.464 66.9467 16.604H70.1807ZM66.9467 17.864C66.9747 18.508 67.1381 18.9747 67.4367 19.264C67.7354 19.5533 68.1647 19.698 68.7247 19.698C69.1261 19.698 69.4714 19.6 69.7607 19.404C70.0501 19.1987 70.2274 18.984 70.2927 18.76H72.0427C71.7627 19.628 71.3334 20.2487 70.7547 20.622C70.1761 20.9953 69.4761 21.182 68.6547 21.182C68.0854 21.182 67.5721 21.0933 67.1147 20.916C66.6574 20.7293 66.2701 20.468 65.9527 20.132C65.6354 19.796 65.3881 19.3947 65.2107 18.928C65.0427 18.4613 64.9587 17.948 64.9587 17.388C64.9587 16.8467 65.0474 16.3427 65.2247 15.876C65.4021 15.4093 65.6541 15.008 65.9807 14.672C66.3074 14.3267 66.6947 14.056 67.1427 13.86C67.6001 13.664 68.1041 13.566 68.6547 13.566C69.2707 13.566 69.8074 13.6873 70.2647 13.93C70.7221 14.1633 71.0954 14.4807 71.3847 14.882C71.6834 15.2833 71.8981 15.7407 72.0287 16.254C72.1594 16.7673 72.2061 17.304 72.1687 17.864H66.9467Z" fill="white"/>
<rect x="0.5" y="0.5" width="87" height="31" rx="15.5" stroke="white"/>
</svg>
