<svg width="32" height="29" viewBox="0 0 32 29" fill="none" xmlns="http://www.w3.org/2000/svg">
<path fill-rule="evenodd" clip-rule="evenodd" d="M4.26263 6.73756L4.26262 11L6.73769 11L6.7377 6.73756H11V4.26257H6.7377L6.7377 1.08185e-07L4.26263 0L4.26263 4.26257H0V6.73756H4.26263Z" fill="white"/>
<path fill-rule="evenodd" clip-rule="evenodd" d="M18.828 4.93388C16.16 4.93388 12.8989 6.95949 12.8989 10.6059C12.8989 12.4759 13.5612 13.6332 14.3364 14.6224C14.5374 14.8788 14.7461 15.1239 14.9629 15.3767C14.9797 15.3962 14.9965 15.4159 15.0135 15.4357C15.2108 15.6656 15.417 15.9059 15.6103 16.1486C16.0316 16.6775 16.4423 17.2781 16.6761 17.9983L14.6134 18.5405C14.4788 18.126 14.2279 17.7323 13.8638 17.2753C13.6939 17.062 13.5104 16.8482 13.3079 16.6121C13.2926 16.5943 13.2772 16.5763 13.2617 16.5582C13.0452 16.3057 12.8109 16.0311 12.5803 15.737C11.6295 14.5237 10.75 12.984 10.75 10.6059C10.75 5.756 15.1295 3 18.828 3C23.5237 3 27.3471 6.39697 27.3471 10.6059C27.3471 12.5301 26.19 14.8612 24.742 16.5938C24.4057 16.9963 24.2048 17.6005 24.2339 18.1865C24.2632 18.7749 24.5075 19.1768 24.8301 19.3717L30.2865 22.6696L30.3226 22.6959C30.7529 23.0076 31.1527 23.4803 31.4418 23.9423C31.7207 24.3878 32 24.9868 32 25.567V29H18.828V27.0661H29.8511V25.567C29.8511 25.482 29.7834 25.233 29.5695 24.8914C29.3784 24.5861 29.1563 24.3437 29.0038 24.2239L23.632 20.9771C22.5677 20.3339 22.1361 19.2555 22.0872 18.273C22.0382 17.2881 22.3569 16.2305 23.0246 15.4314C24.3198 13.8817 25.1982 11.9536 25.1982 10.6059C25.1982 7.48161 22.3555 4.93388 18.828 4.93388Z" fill="white"/>
<path fill-rule="evenodd" clip-rule="evenodd" d="M20.172 4.93388C22.84 4.93388 26.1011 6.95949 26.1011 10.6059C26.1011 12.4759 25.4388 13.6332 24.6636 14.6224C24.4626 14.8788 24.2539 15.1239 24.0371 15.3767C24.0203 15.3962 24.0035 15.4159 23.9865 15.4357C23.7892 15.6656 23.583 15.9059 23.3897 16.1486C22.9684 16.6775 22.5577 17.2781 22.3239 17.9983L24.3866 18.5405C24.5212 18.126 24.7721 17.7323 25.1362 17.2753C25.3061 17.062 25.4896 16.8482 25.6921 16.6121C25.7074 16.5943 25.7228 16.5763 25.7383 16.5582C25.9548 16.3057 26.1891 16.0311 26.4197 15.737C27.3705 14.5237 28.25 12.984 28.25 10.6059C28.25 5.756 23.8705 3 20.172 3C15.4763 3 11.6529 6.39697 11.6529 10.6059C11.6529 12.5301 12.81 14.8612 14.258 16.5938C14.5943 16.9963 14.7952 17.6005 14.7661 18.1865C14.7368 18.7749 14.4925 19.1768 14.1699 19.3717L8.71354 22.6696L8.67736 22.6959C8.24714 23.0076 7.84735 23.4803 7.55816 23.9423C7.27929 24.3878 7 24.9868 7 25.567V29H20.172V27.0661H9.1489V25.567C9.1489 25.482 9.21663 25.233 9.43045 24.8914C9.62159 24.5861 9.84366 24.3437 9.99624 24.2239L15.368 20.9771C16.4323 20.3339 16.8639 19.2555 16.9128 18.273C16.9618 17.2881 16.6431 16.2305 15.9754 15.4314C14.6802 13.8817 13.8018 11.9536 13.8018 10.6059C13.8018 7.48161 16.6445 4.93388 20.172 4.93388Z" fill="white"/>
</svg>
