<svg width="56" height="56" viewBox="0 0 56 56" fill="none" xmlns="http://www.w3.org/2000/svg">
<rect width="56" height="56" rx="28" fill="#1ED760"/>
<path d="M22.6988 18.1928L38.1008 27.2919C38.2222 27.3637 38.323 27.4669 38.3931 27.5912C38.4631 27.7155 38.5 27.8564 38.5 27.9999C38.5 28.1434 38.4631 28.2843 38.3931 28.4086C38.323 28.5329 38.2222 28.6361 38.1008 28.7079L22.6988 37.807C22.5773 37.8788 22.4395 37.9166 22.2993 37.9166C22.159 37.9166 22.0212 37.8788 21.8997 37.8071C21.7782 37.7353 21.6773 37.6321 21.6072 37.5078C21.537 37.3835 21.5 37.2425 21.5 37.099V18.9008C21.5 18.7573 21.537 18.6163 21.6072 18.492C21.6773 18.3677 21.7782 18.2645 21.8997 18.1928C22.0212 18.121 22.159 18.0832 22.2993 18.0833C22.4395 18.0833 22.5773 18.1211 22.6988 18.1928Z" fill="black"/>
</svg>
