<svg width="32" height="7" viewBox="0 0 32 7" fill="none" xmlns="http://www.w3.org/2000/svg">
<path fill-rule="evenodd" clip-rule="evenodd" d="M6.28571 3.14286C6.28571 4.87861 4.87861 6.28571 3.14286 6.28571C1.40711 6.28571 0 4.87861 0 3.14286C0 1.4071 1.40711 0 3.14286 0C4.87861 0 6.28571 1.4071 6.28571 3.14286ZM18.8571 3.14286C18.8571 4.87861 17.45 6.28571 15.7143 6.28571C13.9785 6.28571 12.5714 4.87861 12.5714 3.14286C12.5714 1.4071 13.9785 0 15.7143 0C17.45 0 18.8571 1.4071 18.8571 3.14286ZM28.2857 6.28571C30.0215 6.28571 31.4286 4.87861 31.4286 3.14286C31.4286 1.4071 30.0215 0 28.2857 0C26.55 0 25.1429 1.4071 25.1429 3.14286C25.1429 4.87861 26.55 6.28571 28.2857 6.28571Z" fill="#B3B3B3"/>
</svg>
