<svg width="9" height="16" viewBox="0 0 9 16" fill="none" xmlns="http://www.w3.org/2000/svg">
<path d="M0.251467 0.2464C0.0970463 0.404218 0.0102978 0.618236 0.0102978 0.841391C0.0102978 1.06454 0.0970463 1.27856 0.251467 1.43638L6.67057 7.99474L0.251467 14.5531C0.172795 14.6307 0.110043 14.7236 0.0668737 14.8263C0.0237044 14.9289 0.000981501 15.0394 3.11005e-05 15.1511C-0.0009193 15.2629 0.0199216 15.3737 0.061338 15.4771C0.102754 15.5805 0.163917 15.6745 0.241257 15.7535C0.318596 15.8325 0.410564 15.895 0.511794 15.9373C0.613024 15.9796 0.721488 16.0009 0.830859 16C0.940229 15.999 1.04832 15.9758 1.14881 15.9317C1.24931 15.8876 1.3402 15.8235 1.41618 15.7431L9 7.99474L1.41618 0.2464C1.26171 0.0886302 1.05224 0 0.833823 0C0.615407 0 0.405933 0.0886302 0.251467 0.2464V0.2464Z" fill="white"/>
</svg>
