<svg width="16" height="16" viewBox="0 0 16 16" fill="none" xmlns="http://www.w3.org/2000/svg">
<g clip-path="url(#clip0_4_7124)">
<path d="M13.151 1.12494C13.0823 1.05125 12.9995 0.99215 12.9075 0.951158C12.8155 0.910166 12.7162 0.888124 12.6155 0.886347C12.5148 0.88457 12.4148 0.903095 12.3214 0.940816C12.228 0.978537 12.1432 1.03468 12.072 1.1059C12.0007 1.17712 11.9446 1.26195 11.9069 1.35534C11.8692 1.44873 11.8506 1.54876 11.8524 1.64946C11.8542 1.75016 11.8762 1.84948 11.9172 1.94148C11.9582 2.03348 12.0173 2.11628 12.091 2.18494L13.109 3.20294H11.16C10.6123 3.20295 10.0713 3.32292 9.57494 3.55442C9.07859 3.78592 8.63898 4.12334 8.287 4.54294L2.114 11.8989C1.90279 12.1507 1.63899 12.3532 1.34115 12.4921C1.0433 12.631 0.718642 12.703 0.39 12.7029H0V14.2029H0.391C0.938681 14.2029 1.47971 14.083 1.97606 13.8515C2.47241 13.62 2.91202 13.2825 3.264 12.8629L9.437 5.50694C9.64821 5.25515 9.91201 5.05269 10.2099 4.91378C10.5077 4.77488 10.8324 4.70291 11.161 4.70294H13.108L12.091 5.72094C11.9585 5.86311 11.8864 6.05116 11.8898 6.24546C11.8933 6.43976 11.972 6.62515 12.1094 6.76256C12.2468 6.89997 12.4322 6.97869 12.6265 6.98211C12.8208 6.98554 13.0088 6.91342 13.151 6.78094L15.98 3.95294L13.15 1.12494H13.151ZM0.391 3.70294H0V2.20294H0.391C1.5 2.20294 2.551 2.69294 3.264 3.54294L4.89 5.47994L3.911 6.64694L2.115 4.50694C1.90368 4.25502 1.63972 4.05248 1.34169 3.91357C1.04366 3.77467 0.718811 3.70277 0.39 3.70294H0.391Z" fill="white"/>
<path d="M7.5 10.9259L8.48 9.75894L9.437 10.8989C9.64821 11.1507 9.91201 11.3532 10.2099 11.4921C10.5077 11.631 10.8324 11.703 11.161 11.7029H13.108L12.091 10.6849C12.0173 10.6163 11.9582 10.5335 11.9172 10.4415C11.8762 10.3495 11.8542 10.2502 11.8524 10.1495C11.8506 10.0488 11.8692 9.94873 11.9069 9.85534C11.9446 9.76195 12.0007 9.67712 12.072 9.6059C12.1432 9.53468 12.228 9.47854 12.3214 9.44082C12.4148 9.40309 12.5148 9.38457 12.6155 9.38635C12.7162 9.38812 12.8155 9.41017 12.9075 9.45116C12.9995 9.49215 13.0823 9.55125 13.151 9.62494L15.98 12.4529L13.151 15.2809C13.0823 15.3546 12.9995 15.4137 12.9075 15.4547C12.8155 15.4957 12.7162 15.5178 12.6155 15.5195C12.5148 15.5213 12.4148 15.5028 12.3214 15.4651C12.228 15.4273 12.1432 15.3712 12.072 15.3C12.0007 15.2288 11.9446 15.1439 11.9069 15.0505C11.8692 14.9571 11.8506 14.8571 11.8524 14.7564C11.8542 14.6557 11.8762 14.5564 11.9172 14.4644C11.9582 14.3724 12.0173 14.2896 12.091 14.2209L13.109 13.2029H11.16C10.6123 13.2029 10.0713 13.083 9.57494 12.8515C9.07859 12.62 8.63898 12.2825 8.287 11.8629L7.5 10.9259Z" fill="white"/>
</g>
<defs>
<clipPath id="clip0_4_7124">
<rect width="16" height="16" fill="white"/>
</clipPath>
</defs>
</svg>
