<svg width="14" height="14" viewBox="0 0 14 14" fill="none" xmlns="http://www.w3.org/2000/svg">
<path d="M11.5215 0.986963C11.4614 0.922406 11.3888 0.870627 11.3082 0.834714C11.2276 0.798802 11.1406 0.779491 11.0524 0.777934C10.9642 0.776378 10.8765 0.792607 10.7947 0.825654C10.7129 0.858701 10.6386 0.907889 10.5762 0.970283C10.5138 1.03268 10.4646 1.107 10.4316 1.18882C10.3985 1.27063 10.3823 1.35827 10.3838 1.44649C10.3854 1.53472 10.4047 1.62173 10.4406 1.70233C10.4765 1.78293 10.5283 1.85547 10.5929 1.91562L11.4847 2.80748H9.77722C9.2974 2.80749 8.8234 2.91259 8.38856 3.11541C7.95371 3.31823 7.56856 3.61383 7.2602 3.98145L1.85207 10.426C1.66703 10.6466 1.43591 10.8239 1.17497 10.9456C0.914031 11.0673 0.629599 11.1304 0.341677 11.1304H0V12.4445H0.342553C0.822374 12.4445 1.29637 12.3394 1.73122 12.1366C2.16607 11.9338 2.55121 11.6381 2.85957 11.2705L8.26771 4.826C8.45275 4.60541 8.68386 4.42803 8.9448 4.30634C9.20574 4.18465 9.49018 4.1216 9.7781 4.12162H11.4839L10.5929 5.01348C10.4768 5.13804 10.4136 5.30279 10.4166 5.47301C10.4196 5.64324 10.4886 5.80565 10.609 5.92604C10.7294 6.04643 10.8918 6.11539 11.062 6.11839C11.2322 6.12139 11.397 6.05821 11.5215 5.94214L14 3.46455L11.5207 0.986963H11.5215ZM0.342553 3.24553H0V1.93139H0.342553C1.31414 1.93139 2.23492 2.36068 2.85957 3.10535L4.28411 4.80234L3.42641 5.82474L1.85294 3.94991C1.66781 3.7292 1.43655 3.55176 1.17545 3.43006C0.914349 3.30837 0.629747 3.24538 0.341677 3.24553H0.342553Z" fill="#1ED760"/>
<path d="M6.22217 9.14458L7.12101 8.10867L7.99877 9.12062C8.19248 9.34412 8.43444 9.52384 8.70762 9.64714C8.9808 9.77044 9.27858 9.83432 9.58 9.8343H11.3658L10.433 8.93066C10.3654 8.86971 10.3112 8.79621 10.2736 8.71454C10.236 8.63288 10.2158 8.54472 10.2142 8.45533C10.2125 8.36594 10.2295 8.27714 10.2641 8.19425C10.2987 8.11135 10.3502 8.03604 10.4155 7.97283C10.4809 7.90961 10.5587 7.85977 10.6443 7.82629C10.73 7.7928 10.8217 7.77636 10.9141 7.77794C11.0064 7.77951 11.0975 7.79908 11.1819 7.83547C11.2663 7.87185 11.3422 7.92432 11.4052 7.98973L13.9999 10.5001L11.4052 13.0104C11.3422 13.0758 11.2663 13.1283 11.1819 13.1646C11.0975 13.201 11.0064 13.2206 10.9141 13.2222C10.8217 13.2238 10.73 13.2073 10.6443 13.1738C10.5587 13.1403 10.4809 13.0905 10.4155 13.0273C10.3502 12.9641 10.2987 12.8888 10.2641 12.8059C10.2295 12.723 10.2125 12.6342 10.2142 12.5448C10.2158 12.4554 10.236 12.3672 10.2736 12.2856C10.3112 12.2039 10.3654 12.1304 10.433 12.0695L11.3667 11.1658H9.57909C9.07676 11.1658 8.58053 11.0593 8.12528 10.8538C7.67004 10.6483 7.26683 10.3488 6.944 9.97633L6.22217 9.1437V9.14458Z" fill="#1ED760"/>
</svg>
