<svg width="16" height="16" viewBox="0 0 16 16" fill="none" xmlns="http://www.w3.org/2000/svg">
<path d="M9.7412 0.849969C9.85529 0.915836 9.95001 1.01059 10.0158 1.1247C10.0817 1.2388 10.1163 1.36824 10.1162 1.49997V14.5C10.1163 14.6317 10.0817 14.7611 10.0159 14.8751C9.95011 14.9892 9.85544 15.084 9.74141 15.1498C9.62738 15.2157 9.49802 15.2504 9.36632 15.2505C9.23463 15.2505 9.10525 15.2158 8.9912 15.15L2.0662 11.15C1.2324 10.6665 0.62422 9.87229 0.374924 8.94127C0.125628 8.01025 0.255542 7.01838 0.736202 6.18297C1.05504 5.63001 1.51372 5.17064 2.0662 4.85097L8.9912 0.850969C9.10522 0.785143 9.23455 0.750488 9.3662 0.750488C9.49785 0.750488 9.62719 0.784143 9.7412 0.849969ZM2.8172 6.14997C2.49317 6.33803 2.22422 6.6079 2.03726 6.93257C1.8503 7.25724 1.7519 7.62532 1.7519 7.99997C1.7519 8.37462 1.8503 8.7427 2.03726 9.06737C2.22422 9.39204 2.49317 9.66191 2.8172 9.84997L8.6172 13.2V2.79997L2.8172 6.14997ZM11.5002 10.44V5.55997C11.9468 5.79214 12.3211 6.14243 12.5824 6.57268C12.8436 7.00292 12.9818 7.49662 12.9818 7.99997C12.9818 8.50332 12.8436 8.99702 12.5824 9.42726C12.3211 9.85751 11.9468 10.2078 11.5002 10.44Z" fill="#B9B9B9"/>
<path d="M11.5 13.6142C12.7765 13.3295 13.9179 12.6181 14.7359 11.5976C15.5539 10.577 15.9996 9.30814 15.9996 8.00023C15.9996 6.69232 15.5539 5.42346 14.7359 4.40289C13.9179 3.38233 12.7765 2.67101 11.5 2.38623V3.93623C12.3687 4.20389 13.1288 4.74293 13.6688 5.47425C14.2087 6.20558 14.5 7.09069 14.5 7.99973C14.5 8.90877 14.2087 9.79388 13.6688 10.5252C13.1288 11.2565 12.3687 11.7956 11.5 12.0632V13.6132V13.6142Z" fill="#B9B9B9"/>
</svg>
